<svg width="264" height="368" viewBox="0 0 264 368" fill="none" xmlns="http://www.w3.org/2000/svg">
<path d="M142.18 123.06C120.16 84.52 146.4 48.58 177.48 48.58C203.07 48.58 223.48 72.87 189.8 113.36L226.38 140.89C244.85 121.78 258.46 96.83 258.46 68.99C258.46 22.35 221.21 0 179.43 0C105.26 0 49.54 70.28 93.92 147.36L98.64 155.55L94.9 157.09C54.1 173.94 0 210.52 0 273.7C0 333.62 46 367.29 98.14 367.29C140.06 367.29 172.51 345.46 195.14 323.06L217.64 362.12L263.64 333.93L142.18 123.06ZM104.62 318.36C77.74 318.36 56.67 298.94 56.67 273.67C56.67 247.74 78.69 220.55 122.76 202.41L125.11 201.45L172.79 284.2C163.47 293.39 135.14 318.36 104.62 318.36Z" fill="#fff"/>
</svg>
