<svg width="696" height="78" viewBox="0 0 696 78" fill="#fff" xmlns="http://www.w3.org/2000/svg">
<path d="M25.01 22.7C25.01 17.06 33.97 13.3 43.65 13.3C53.19 13.3 62.87 16.48 64.9 25.15C69.23 23.27 73.57 21.54 77.9 19.81C75.44 6.37 61.86 0.0100098 46.25 0.0100098C30.07 0.0100098 8.38 6.94999 8.38 26.61C8.38 51.76 56.66 39.04 56.66 52.77C56.66 60.44 47.55 63.61 39.17 63.61C28.76 63.61 16.48 59.13 14.16 50.03L0 55.96C3.04 73.16 21.82 77.35 35.85 77.35C52.62 77.35 73.29 68.24 73.29 48.88C73.28 23.85 25.01 36.72 25.01 22.7Z" />
<path d="M156.27 2.17004V41.34C151.65 54.78 140.81 60.71 130.98 60.71C122.74 60.71 115.37 55.51 115.37 45.96V2.17004H98.8999V48.13C98.8999 65.04 110.17 76.02 125.93 76.02C136.63 76.02 148.04 72.27 156.14 61.71L156.86 74.43H172.62V2.17004H156.27Z"/>
<path d="M207.52 2.17004V74.43H223.86V2.17004H207.52Z"/>
<path d="M302.77 58.69V74.73C300.31 75.02 295.98 75.3 293.38 75.3C275.89 75.3 268.66 64.61 268.66 44.37V18.21H250.18V2.17004H305.94V18.21H285V43.8C285 55.21 287.89 58.97 297.29 58.97C298.44 58.98 301.91 58.83 302.77 58.69Z"/>
<path d="M391.78 51.18C387.87 58.4 378.34 61.87 370.39 61.87C355.5 61.87 347.41 52.19 347.41 38.03C347.41 23.43 357.38 15.63 369.09 15.63C378.48 15.63 386.87 19.82 389.61 29.8C394.38 28.07 399.3 26.33 404.06 24.46C399 6.25002 383.97 0.0300293 368.51 0.0300293C345.52 0.0300293 330.79 16.8 330.79 39.06C330.79 62.19 347.27 77.36 370.53 77.36C385.13 77.36 399 70.85 405.08 57.27L391.78 51.18Z" />
<path d="M484.35 2.16995C484.06 5.20995 483.63 8.23994 483.2 11.2799C476.99 4.33994 467.88 0.439941 457.91 0.439941C439.98 0.439941 424.23 13.0099 424.23 38.5999C424.23 62.5899 441.15 76.6099 459.65 76.6099C469.04 76.6099 477.57 72.9999 483.35 65.7699L484.36 74.4399H499.69V2.17993H484.35V2.16995ZM462.67 61.5799C449.67 61.5799 440.85 53.0499 440.85 39.6099C440.85 25.2999 449.53 15.8999 462.83 15.8999C477.28 15.8999 483.35 25.87 483.35 38.45C483.34 51.46 476.69 61.5799 462.67 61.5799Z" />
<path d="M544.56 21.54C544.56 16.48 552.94 13.3 561.62 13.3C571.16 13.3 581.42 16.48 584.88 25.15C588.93 23.27 592.98 21.54 597.03 19.81C592.11 6.37 577.52 0.0100098 561.91 0.0100098C546.74 0.0100098 528.38 5.94 528.38 22.56C528.38 53.79 581.56 37.59 581.56 53.93C581.56 60.72 574.34 63.61 565.96 63.61C555.55 63.61 542.55 59.13 538.64 50.03L525.48 55.96C531.56 73.16 551.07 77.35 565.09 77.35C580.99 77.35 597.9 69.54 597.9 52.93C597.9 21.68 544.56 38.16 544.56 21.54Z" />
<path d="M695.84 34.84C695.4 14.31 679.07 0 657.82 0C634.84 0 619.67 15.18 619.67 39.03C619.67 62.16 635.13 77.33 658.26 77.33C671.58 77.33 685.73 72.16 692.1 59.43L680.21 52.31C675.37 60.83 664.97 62.59 658.12 62.59C646.56 62.59 638.03 54.93 636 43.51L694.11 43.66C694.39 42.35 695.54 38.89 695.84 34.84ZM636.44 31.66C638.75 21.4 646.99 14.89 657.83 14.89C670.84 14.89 679.22 20.96 680.23 31.66H636.44Z" />
</svg>
